<svg width="120" height="120" viewBox="0 0 120 120" fill="none" xmlns="http://www.w3.org/2000/svg">
<g clip-path="url(#clip0_7098_71989)">
<rect width="120" height="120" rx="24" fill="#1677FF"/>
<path d="M74.9974 30C85.1227 30 93.3307 38.3333 93.3307 50C93.3307 73.3333 68.3307 86.6667 59.9974 91.6667C53.4054 87.7117 36.3849 78.542 29.5591 63.3333H45.218L48.3307 58.1457L58.3307 74.8123L65.2181 63.3333H76.6641V56.6667H61.4434L58.3307 61.8543L48.3307 45.1878L41.4434 56.6667L27.3649 56.6663C26.9113 54.542 26.6641 52.3205 26.6641 50C26.6641 38.3333 34.9974 30 44.9974 30C51.1973 30 56.6641 33.3333 59.9974 36.6667C63.3307 33.3333 68.7974 30 74.9974 30Z" fill="#E6F4FF"/>
</g>
<defs>
<clipPath id="clip0_7098_71989">
<rect width="120" height="120" fill="white"/>
</clipPath>
</defs>
</svg>
